<svg id="Layer_1" data-name="Layer 1" xmlns="http://www.w3.org/2000/svg" viewBox="0 0 172.7 43.43"><defs><style>.cls-1{fill:#ecd10a;}</style></defs><path class="cls-1" d="M38.5,1.23A21.89,21.89,0,0,0,16.44,23,21.6,21.6,0,0,0,26.52,41.18a2.23,2.23,0,0,1,0-.23c0-.06.54-2.36,1.05-5.4a57.61,57.61,0,0,0,1-9.84,14.84,14.84,0,0,0-2-7.23,11.51,11.51,0,0,0-2-2.7,2.59,2.59,0,0,0-.42.89,5.49,5.49,0,0,0-.32,2,6.66,6.66,0,0,0,.57,2.07,7.93,7.93,0,0,1,.41,3.13,9.06,9.06,0,0,1-.66,3.19,3.5,3.5,0,0,1-.55.95A15.86,15.86,0,0,1,22,21.88a19.59,19.59,0,0,1,.59-5.78A13,13,0,0,1,26,10.32,10.9,10.9,0,0,1,33,7c2.86-.2,4.9,1.62,6.21,3.49a15,15,0,0,1,1.91,3.8,23.52,23.52,0,0,1,6.84-.6c3.43.27,6.9,1.71,7,6.35a10.65,10.65,0,0,1-1,5,14.46,14.46,0,0,1-4.22,5A15.76,15.76,0,0,1,44,33a7.11,7.11,0,0,1-4.63-.11,3,3,0,0,1-1.27-1,2.77,2.77,0,0,1-.47-1.06,2.3,2.3,0,0,1,0-1.19,2.39,2.39,0,0,1,.88-1.23c.33-.24.69-.47,1.18-.78s1.07-.66,1.85-1.17a14.2,14.2,0,0,0,2-1.46,4.63,4.63,0,0,0,1.15-1.56,3.7,3.7,0,0,0,.18-2.3,3.84,3.84,0,0,0-.37-1s-.39.29-1.07.74S41.8,22,40.64,22.62A42.19,42.19,0,0,0,36,25.44a15.52,15.52,0,0,0-4.7,5.38,18.88,18.88,0,0,0-1.64,7.77c-.05,1.78,0,3.53.06,4.29a22.14,22.14,0,0,0,8.75,1.78A21.9,21.9,0,0,0,60.56,23,21.89,21.89,0,0,0,38.5,1.23Zm15,31.17a14,14,0,0,0,3.3-6.32,16.89,16.89,0,0,0,.37-5.64c0-.65.43-.62.43-.62.55,0,.56.81.56.87s.44,5.07-1.69,8.49A9.87,9.87,0,0,1,53.55,32.4Z" transform="translate(-16.44 -1.23)"/><path class="cls-1" d="M66.78,33.73a1.82,1.82,0,0,1-.85-.76,1.94,1.94,0,0,1-.26-.9,2.07,2.07,0,0,1,0-.35c.16-.75.77-1.2,1.83-1.36A7.23,7.23,0,0,0,70,29.5a3.85,3.85,0,0,0,1.55-1.4,2.07,2.07,0,0,0,.14-.37,1.68,1.68,0,0,0,0-.2,1.11,1.11,0,0,0,0-.17A2.37,2.37,0,0,0,70.76,26a14.57,14.57,0,0,0-2.6-1.67c-1.09-.58-1.91-1-2.46-1.32s-1-.54-1.23-.72-.51-.38-.74-.57a4.26,4.26,0,0,1-1.58-3.18,5,5,0,0,1,.44-1.94,7.42,7.42,0,0,1,1.29-1.85,11,11,0,0,1,1.9-1.65c.45-.28,1-.58,1.61-.89a12.91,12.91,0,0,1,1.61-.7,5.06,5.06,0,0,1,1.56-.28,2.17,2.17,0,0,1,1.71.7,1.61,1.61,0,0,1,.37,1,1.45,1.45,0,0,1-.06.41,1.48,1.48,0,0,1-1,1,2.34,2.34,0,0,1-.32.07l-.43.07a7.52,7.52,0,0,0-3.36,1.8c-1,.84-1.55,1.53-1.55,2.08a.87.87,0,0,0,.13.44,1.25,1.25,0,0,0,.35.41,6,6,0,0,0,.88.56l1.79,1a27.73,27.73,0,0,1,3.67,2.2,7.23,7.23,0,0,1,1.86,2,4.76,4.76,0,0,1,.56,1.17,4.39,4.39,0,0,1,.19,1.26v.28c0,.16,0,.32,0,.45a3.15,3.15,0,0,1-.08.56c-.48,1.71-1.82,3.14-4,4.27a8.3,8.3,0,0,1-3.42,1A3,3,0,0,1,66.78,33.73Z" transform="translate(-16.44 -1.23)"/><path class="cls-1" d="M87.76,34.73a2.15,2.15,0,0,1-.31-.15,1.48,1.48,0,0,1-.3-.23,1.39,1.39,0,0,1-.44-.59,2.08,2.08,0,0,1-.11-.69c0-.14,0-.28,0-.44q.07-.69.33-2c.23-1.21.4-2.19.51-2.92s.19-1.43.24-2.07c0-.43.06-.85.06-1.25,0-.17,0-.33,0-.49a4.41,4.41,0,0,0-.13-1.12c-.15-.38-.36-.57-.64-.57a2.26,2.26,0,0,0-1.36.83,10.43,10.43,0,0,0-2.33,4.08,18.21,18.21,0,0,0-1.16,5.15A4.94,4.94,0,0,1,82,33.55a1.41,1.41,0,0,1-.45.68,1.65,1.65,0,0,1-.72.37l-.42,0a1.71,1.71,0,0,1-.74-.17,2.38,2.38,0,0,1-1.14-2q0-.25-.18-1c-.1-.51-.21-1.07-.34-1.69-.45-2.27-.77-4.16-.93-5.67a51.21,51.21,0,0,1-.24-5.3c0-1.06,0-1.82,0-2.3a3.13,3.13,0,0,1,.17-1,1.75,1.75,0,0,1,.43-.58,1.61,1.61,0,0,1,1.12-.55,1.52,1.52,0,0,1,1,.42,1.34,1.34,0,0,1,.32.42,2.37,2.37,0,0,1,.17.73c0,.33.06.81.09,1.43q.1,1.88.24,3.45a13.67,13.67,0,0,0,.22,1.84c.1.19.2.29.32.29a.27.27,0,0,0,.12,0,2.5,2.5,0,0,0,.75-.86,11.22,11.22,0,0,1,1.62-1.81,8.77,8.77,0,0,1,1.82-1.33,4.45,4.45,0,0,1,2-.5,3.59,3.59,0,0,1,.47,0,3.76,3.76,0,0,1,2.18,1A4,4,0,0,1,91,21.29a10.45,10.45,0,0,1,.33,3,38.93,38.93,0,0,1-1,7.77,6.32,6.32,0,0,1-.6,2,1.5,1.5,0,0,1-1,.75,1.58,1.58,0,0,1-.44.08h-.06A2,2,0,0,1,87.76,34.73Z" transform="translate(-16.44 -1.23)"/><path class="cls-1" d="M95.73,33.16c-1.37-.49-2.18-1.66-2.42-3.52,0-.22,0-.46,0-.7a10,10,0,0,1,.7-3.52,12.59,12.59,0,0,1,2.47-4A6.92,6.92,0,0,1,101.39,19a4.59,4.59,0,0,1,1.78.33,11,11,0,0,1,2,1.26,7.75,7.75,0,0,1,1.11,1,2.74,2.74,0,0,1,.51.92c0,.13.14.45.28.94s.3,1,.47,1.67.36,1.31.56,2,.38,1.31.52,1.78a15.51,15.51,0,0,1,.46,1.67,4.07,4.07,0,0,1,0,.47,1.54,1.54,0,0,1-.15.7,1.68,1.68,0,0,1-1.54,1,1.85,1.85,0,0,1-1.65-1.12,7,7,0,0,1-.32-.84c-.14-.41-.29-.86-.43-1.34s-.26-.89-.35-1.23a4.55,4.55,0,0,0-.32-1c-.1-.2-.21-.29-.33-.29a.6.6,0,0,0-.42.27,11.43,11.43,0,0,0-.72,1.07c-1.66,2.62-3.29,4.24-4.9,4.88a3.08,3.08,0,0,1-.91.19h-.48A3.08,3.08,0,0,1,95.73,33.16ZM98.2,28.5a14.93,14.93,0,0,0,1.54-2.07,32.25,32.25,0,0,0,1.65-2.84,1.51,1.51,0,0,0,.22-.67.35.35,0,0,0-.22-.36.43.43,0,0,0-.21-.08.93.93,0,0,0-.32.1,5.24,5.24,0,0,0-1.79,1.32,8.14,8.14,0,0,0-1.47,2.2,6.21,6.21,0,0,0-.54,1.54,5.7,5.7,0,0,0-.11.83.83.83,0,0,0,.11.47.4.4,0,0,0,.28.14.41.41,0,0,0,.16,0A2.19,2.19,0,0,0,98.2,28.5Z" transform="translate(-16.44 -1.23)"/><path class="cls-1" d="M113.29,33.52a1.77,1.77,0,0,1-.62-.45,2.8,2.8,0,0,1-.45-1c-.14-.44-.31-1.08-.52-1.93q-.51-2-.72-3.09t-.39-2.58c-.06-.5-.13-1-.19-1.42s-.11-.75-.14-.93a4.48,4.48,0,0,1-.11-.87,1.58,1.58,0,0,1,0-.32,1.39,1.39,0,0,1,.44-.76,1.54,1.54,0,0,1,1-.46,1.59,1.59,0,0,1,1.06.46,2.13,2.13,0,0,1,.51.67,5.66,5.66,0,0,1,.37,1.09,4,4,0,0,0,.28.87.36.36,0,0,0,.3.23.48.48,0,0,0,.34-.2,2.91,2.91,0,0,0,.42-.68,6.41,6.41,0,0,1,3.69-3.53,3.49,3.49,0,0,1,.86-.09h.27a3.24,3.24,0,0,1,.63.07,2.85,2.85,0,0,1,.56.19,4.66,4.66,0,0,1,1.08.82,5.38,5.38,0,0,1,.89,1.12,2.61,2.61,0,0,1,.2.48,2.47,2.47,0,0,1,0,.54,2.76,2.76,0,0,1,0,.5,1.62,1.62,0,0,1-.18.39,1.6,1.6,0,0,1-.73.65,1.64,1.64,0,0,1-1.15.13,1.62,1.62,0,0,1-.37-.19,4.76,4.76,0,0,1-.47-.31,4.39,4.39,0,0,0-.45-.3,1.17,1.17,0,0,0-.3-.14h-.11c-.44,0-.93.6-1.47,1.81A28.35,28.35,0,0,0,116,31.05a5.81,5.81,0,0,1-.46,1.69,1.65,1.65,0,0,1-.82.77,1.89,1.89,0,0,1-.74.17A1.58,1.58,0,0,1,113.29,33.52Z" transform="translate(-16.44 -1.23)"/><path class="cls-1" d="M129.43,35.12a5.65,5.65,0,0,1-3.55-2.55,8.75,8.75,0,0,1-1.42-3.71,25.14,25.14,0,0,1-.19-2.62,15.7,15.7,0,0,1,.34-3.29,10.17,10.17,0,0,1,1.77-4.05,4.41,4.41,0,0,1,2.34-1.76,9.66,9.66,0,0,1,1.36-.16,4.44,4.44,0,0,1,2.22.59,4.55,4.55,0,0,1,1.93,2,5.63,5.63,0,0,1,.54,2.27,6.67,6.67,0,0,1-.18,1.5,7.4,7.4,0,0,1-5,5.42l-.57.21a2.05,2.05,0,0,0-.34.17.64.64,0,0,0-.18.45,2.11,2.11,0,0,0,.64,1.25,1.73,1.73,0,0,0,1.33.69h.11a1.19,1.19,0,0,0,.37-.06,5.55,5.55,0,0,0,.66-.31c.2-.11.39-.2.58-.29l.43-.18a2.18,2.18,0,0,1,.43-.05,1.55,1.55,0,0,1,1.28.64,1.61,1.61,0,0,1,.37,1,2,2,0,0,1-.17.8,3,3,0,0,1-1,1,6,6,0,0,1-1.55.8,4.44,4.44,0,0,1-1,.21l-.58,0A5.41,5.41,0,0,1,129.43,35.12ZM129,25.3a3.67,3.67,0,0,0,1.09-.9,4.56,4.56,0,0,0,.82-1.34,2.74,2.74,0,0,0,.18-.71,3.51,3.51,0,0,0,0-.46,1.37,1.37,0,0,0-.07-.47.87.87,0,0,0-.45-.59,1.23,1.23,0,0,0-.48-.13.9.9,0,0,0-.47.13c-.59.33-1.07,1.26-1.46,2.78a5.31,5.31,0,0,0-.17,1.14q0,.69.45.69A1.31,1.31,0,0,0,129,25.3Z" transform="translate(-16.44 -1.23)"/><path class="cls-1" d="M141.39,33.43c-1.85-.26-3.13-1.45-3.85-3.55a16.72,16.72,0,0,1-.62-5.3c0-.41,0-.83,0-1.27,0-1,.06-2,.12-3.11s.12-1.93.19-2.56c0-.41.12-1,.22-1.77s.21-1.51.32-2.2.17-1.15.22-1.33a2,2,0,0,1,1.37-1.61,1.63,1.63,0,0,1,.36-.05,1.47,1.47,0,0,1,.61.14,1.51,1.51,0,0,1,.72.69,1.12,1.12,0,0,1,.11.26,1.39,1.39,0,0,1,0,.3,4.38,4.38,0,0,1,0,.47c0,.41-.07,1.24-.17,2.5s-.19,2.62-.29,4.08c-.1,1.06-.15,2.69-.15,4.9,0,1,0,1.75,0,2.23s0,.84,0,1.07.06.44.1.64a3,3,0,0,0,.8,1.64.89.89,0,0,0,.45.18h.25a2.45,2.45,0,0,0,.74-.13c.14-.05.39-.15.72-.3s.69-.3,1.06-.48q1.49-.7,2.13-1a3.5,3.5,0,0,1,1-.26l.2,0a1.51,1.51,0,0,1,1.25.57,1.72,1.72,0,0,1,.44,1.11,1.86,1.86,0,0,1-.25.9,1.58,1.58,0,0,1-.45.52,5.52,5.52,0,0,1-1,.52l-.88.41-1.09.51c-.74.35-1.3.6-1.67.76a6.21,6.21,0,0,1-1.1.33,6,6,0,0,1-1.45.19A5.25,5.25,0,0,1,141.39,33.43Z" transform="translate(-16.44 -1.23)"/><path class="cls-1" d="M155.93,33.58q-2.73-.51-4.15-3.78a11.16,11.16,0,0,1-.75-4.33c0-.19,0-.38,0-.58a10.93,10.93,0,0,1,.57-3.69,2.6,2.6,0,0,1,1.62-1.59l.36-.13.53-.2.39-.14a7.64,7.64,0,0,1,1.3-.43,4.56,4.56,0,0,1,.89-.09l.45,0a4.91,4.91,0,0,1,3.49,1.44,6,6,0,0,1,1.77,3.07,15.38,15.38,0,0,1,.28,2.38,10.21,10.21,0,0,1-.5,3.07,7.35,7.35,0,0,1-3.65,4.53,4.82,4.82,0,0,1-2.06.49A3.52,3.52,0,0,1,155.93,33.58Zm1.23-3.83a2.52,2.52,0,0,0,1-1,5.82,5.82,0,0,0,.73-1.7,4.7,4.7,0,0,0,.16-1.09c0-.32,0-.53,0-.63a4.82,4.82,0,0,0-.09-1,2.72,2.72,0,0,0-1.39-2,1.9,1.9,0,0,0-.63-.11,2.72,2.72,0,0,0-1.14.28,2.43,2.43,0,0,0-1.06.73,2.07,2.07,0,0,0-.24,1.12v.17a10.89,10.89,0,0,0,.6,3.84c.38,1,.87,1.49,1.46,1.49l.3,0A.66.66,0,0,0,157.16,29.75Z" transform="translate(-16.44 -1.23)"/><path class="cls-1" d="M170.12,33.6a3.61,3.61,0,0,1-1.68-1,10.44,10.44,0,0,1-2.11-3.5,20.39,20.39,0,0,1-.67-2c-.19-.7-.42-1.69-.7-3-.07-.34-.14-.68-.22-1l-.18-.73a3.27,3.27,0,0,1-.14-.92,1.42,1.42,0,0,1,.83-1.39,1.73,1.73,0,0,1,.68-.16,1.79,1.79,0,0,1,1.26.61,3.36,3.36,0,0,1,.35.54,7,7,0,0,1,.38,1c.15.45.34,1.12.59,2,.38,1.35.67,2.32.87,2.92a12.12,12.12,0,0,0,.6,1.48c.29.6.55.9.79.9a.41.41,0,0,0,.32-.22.81.81,0,0,0,.17-.23,4.46,4.46,0,0,0,.16-.46c.06-.22.15-.53.24-1s.24-1,.4-1.71c0-.11.06-.23.08-.34.33-1.41.61-2.56.82-3.47s.39-1.61.53-2.12a11.54,11.54,0,0,1,.33-1.14,1.89,1.89,0,0,1,.26-.52,1.05,1.05,0,0,1,.28-.24l0,0a.88.88,0,0,1,.34-.2,3.16,3.16,0,0,1,.55,0,2.89,2.89,0,0,1,.53,0,1,1,0,0,1,.34.18A2,2,0,0,1,177,19a1.68,1.68,0,0,1,.06.49,10.43,10.43,0,0,1-.4,2.37q-.44,1.79-1.54,6.46-.72,3.24-1.79,4.28a3.31,3.31,0,0,1-2.41,1.11A4,4,0,0,1,170.12,33.6Z" transform="translate(-16.44 -1.23)"/><path class="cls-1" d="M183.79,35.12a5.67,5.67,0,0,1-3.55-2.55,8.88,8.88,0,0,1-1.42-3.71,25.14,25.14,0,0,1-.19-2.62A15.7,15.7,0,0,1,179,23a10.17,10.17,0,0,1,1.77-4.05,4.48,4.48,0,0,1,2.34-1.76,9.76,9.76,0,0,1,1.37-.16,4.5,4.5,0,0,1,2.22.59,4.58,4.58,0,0,1,1.92,2,5.65,5.65,0,0,1,.55,2.27,6.7,6.7,0,0,1-.19,1.5,7.38,7.38,0,0,1-5,5.42l-.57.21a1.53,1.53,0,0,0-.33.17.61.61,0,0,0-.19.45,2.11,2.11,0,0,0,.64,1.25,1.74,1.74,0,0,0,1.33.69H185a1.19,1.19,0,0,0,.37-.06,5.55,5.55,0,0,0,.66-.31c.2-.11.39-.2.59-.29a3.42,3.42,0,0,1,.43-.18,2,2,0,0,1,.42-.05,1.54,1.54,0,0,1,1.28.64,1.61,1.61,0,0,1,.37,1,2,2,0,0,1-.17.8,3,3,0,0,1-1,1,6.07,6.07,0,0,1-1.54.8,4.63,4.63,0,0,1-1,.21l-.58,0A5.49,5.49,0,0,1,183.79,35.12Zm-.44-9.82a3.7,3.7,0,0,0,1.1-.9,4.75,4.75,0,0,0,.81-1.34,2.8,2.8,0,0,0,.19-.71c0-.21,0-.37,0-.46a1.68,1.68,0,0,0-.06-.47.91.91,0,0,0-.46-.59,1.23,1.23,0,0,0-.48-.13.9.9,0,0,0-.47.13c-.59.33-1.07,1.26-1.46,2.78a5.31,5.31,0,0,0-.17,1.14c0,.46.15.69.46.69A1.31,1.31,0,0,0,183.35,25.3Z" transform="translate(-16.44 -1.23)"/></svg>